HIERARCHY
ROOT Hips
{
  OFFSET 51.7518 86.765 6.93037
  CHANNELS 6 Xposition Yposition Zposition Zrotation Xrotation Yrotation
  JOINT spine
  {
    OFFSET 0 6.84637 0.3937
    CHANNELS 3 Zrotation Xrotation Yrotation
    JOINT spine1
    {
      OFFSET 0 9.49621 0
      CHANNELS 3 Zrotation Xrotation Yrotation
      JOINT spine2
      {
        OFFSET 0 9.09909 0
        CHANNELS 3 Zrotation Xrotation Yrotation
        JOINT Neck
        {
          OFFSET 0 23.3612 1.11378
          CHANNELS 3 Zrotation Xrotation Yrotation
          JOINT Head
          {
            OFFSET 0 7.05802 0
            CHANNELS 3 Zrotation Xrotation Yrotation
            End Site
            {
              OFFSET 0 17.0844 -5.63419
            }
          }
        }
        JOINT RightShoulder
        {
          OFFSET -3.83136 9.82631 -0.533491
          CHANNELS 3 Zrotation Xrotation Yrotation
          JOINT RightArm
          {
            OFFSET 0 12.8881 0
            CHANNELS 3 Zrotation Xrotation Yrotation
            JOINT RightArmRoll
            {
              OFFSET 0 6.50616 0
              CHANNELS 3 Zrotation Xrotation Yrotation
              JOINT RightForeArm
              {
                OFFSET 0 18.9501 0
                CHANNELS 3 Zrotation Xrotation Yrotation
                JOINT RightForeArmRoll
                {
                  OFFSET 0 7.30092 0
                  CHANNELS 3 Zrotation Xrotation Yrotation
                  JOINT RightHand
                  {
                    OFFSET 0 14.6514 0
                    CHANNELS 3 Zrotation Xrotation Yrotation
                    End Site
                    {
                      OFFSET 0 0 0
                    }
                  }
                }
              }
            }
          }
        }
        JOINT LeftShoulder
        {
          OFFSET 3.83136 9.82631 -0.533491
          CHANNELS 3 Zrotation Xrotation Yrotation
          JOINT LeftArm
          {
            OFFSET 0 12.8881 0
            CHANNELS 3 Zrotation Xrotation Yrotation
            JOINT LeftArmRoll
            {
              OFFSET 0 6.50617 0
              CHANNELS 3 Zrotation Xrotation Yrotation
              JOINT LeftForeArm
              {
                OFFSET 0 18.9501 0
                CHANNELS 3 Zrotation Xrotation Yrotation
                JOINT LeftForeArmRoll
                {
                  OFFSET 0 7.30092 0
                  CHANNELS 3 Zrotation Xrotation Yrotation
                  JOINT LeftHand
                  {
                    OFFSET 0 14.6514 0
                    CHANNELS 3 Zrotation Xrotation Yrotation
                    End Site
                    {
                      OFFSET 0 0 0
                    }
                  }
                }
              }
            }
          }
        }
      }
    }
  }
  JOINT RightUpLeg
  {
    OFFSET -6.06837 -1.11278 -0.933477
    CHANNELS 3 Zrotation Xrotation Yrotation
    JOINT RightUpLegRoll
    {
      OFFSET 0 17.1796 0
      CHANNELS 3 Zrotation Xrotation Yrotation
      JOINT RightLeg
      {
        OFFSET 0 -21.2743 0
        CHANNELS 3 Zrotation Xrotation Yrotation
        JOINT RightLegRoll
        {
          OFFSET 0 21.3439 0
          CHANNELS 3 Zrotation Xrotation Yrotation
          JOINT RightFoot
          {
            OFFSET 0 17.7652 0
            CHANNELS 3 Zrotation Xrotation Yrotation
            JOINT RightToeBase
            {
              OFFSET 0 14.8508 0
              CHANNELS 3 Zrotation Xrotation Yrotation
              End Site
              {
                OFFSET 0.0062947 7.19214 -0.829005
              }
            }
          }
        }
      }
    }
  }
  JOINT LeftUpLeg
  {
    OFFSET 6.06837 -1.11278 -0.933477
    CHANNELS 3 Zrotation Xrotation Yrotation
    JOINT LeftUpLegRoll
    {
      OFFSET 0 17.1797 0
      CHANNELS 3 Zrotation Xrotation Yrotation
      JOINT LeftLeg
      {
        OFFSET 0 21.2742 0
        CHANNELS 3 Zrotation Xrotation Yrotation
        JOINT LeftLegRoll
        {
          OFFSET 0 21.5412 0
          CHANNELS 3 Zrotation Xrotation Yrotation
          JOINT LeftFoot
          {
            OFFSET 0 17.5679 0
            CHANNELS 3 Zrotation Xrotation Yrotation
            JOINT LeftToeBase
            {
              OFFSET 0 14.8508 0
              CHANNELS 3 Zrotation Xrotation Yrotation
              End Site
              {
                OFFSET -0.0282102 7.19214 -0.829005
              }
            }
          }
        }
      }
    }
  }
}
MOTION
Frames: 10
Frame Time: 0.00208333
52.3504 86.6016 4.62376 0.277081 -1.83543 -2.77803 1.36189 -1.37541 0.947023 2.74772 1.27181 1.74887 2.72849 2.91549 1.70385 -21.5817 7.75939 -0.339169 14.6339 10.3548 -6.00334 49.4421 -6.47384 -3.52946 102.021 14.391 21.0697 -4.62574e-006 -3.3066e-006 -3.6222e-006 14.2525 4.78798 -0.877921 -5.40159e-006 1.10537e-006 -2.99999 8.02891 -4.95147 0.697705 -73.8437 -7.94009 5.30912 -88.8493 19.4712 -32.612 2.17674e-005 2.64075e-006 2.12765e-006 -11.8185 3.97691 -0.255958 7.29386e-006 5.26163e-006 3.00001 -8.02887 -4.95144 -0.697678 178.392 14.5296 -1.58826 180 7.01532e-015 178.859 176.457 24.3186 -179.833 -5.79216e-006 2.69059e-007 0.583159 -22.6086 71.2283 22.7698 8.13649 25.2327 -3.48773 -179.322 11.2998 0.981857 -1.07169e-005 -4.64205e-006 -1.10383 -1.54597 -25.202 0.441803 -1.37099e-006 -3.52311e-006 -0.725805 26.1532 75.0287 -28.0199 -8.13649 25.2327 3.48774 
52.3509 86.6111 4.62641 0.288358 -1.83681 -2.76384 1.35996 -1.37689 0.945037 2.74293 1.26877 1.74517 2.72375 2.91245 1.70022 -21.5799 7.75332 -0.343443 14.6393 10.3507 -6.0055 49.4402 -6.47278 -3.52856 102.082 14.4216 20.9032 -4.62574e-006 -3.3066e-006 -3.6222e-006 14.3126 4.92973 -0.898357 -5.40159e-006 1.10537e-006 -2.99999 8.02891 -4.95147 0.697705 -73.8421 -7.93912 5.30863 -88.8673 19.4779 -32.5654 2.17674e-005 2.64075e-006 2.12765e-006 -11.8467 4.01759 -0.247525 7.29386e-006 5.26163e-006 3.00001 -8.02887 -4.95144 -0.697678 178.372 14.5281 -1.5755 180 7.01532e-015 178.859 176.458 24.3232 -179.834 -5.79216e-006 2.69059e-007 0.583159 -22.607 71.2331 22.7747 8.13649 25.2327 -3.48773 -179.347 11.2686 1.00542 -1.07169e-005 -4.64205e-006 -1.10488 -1.53809 -25.1659 0.44595 -1.37099e-006 -3.52311e-006 -0.72637 26.1482 75.0235 -28.0125 -8.13649 25.2327 3.48774 
52.3529 86.6067 4.6174 0.300006 -1.8382 -2.74909 1.35798 -1.37836 0.942912 2.73796 1.26575 1.7412 2.71885 2.90943 1.69633 -21.5778 7.74688 -0.347718 14.6443 10.3466 -6.00751 49.4385 -6.47189 -3.5278 102.142 14.4522 20.7373 -4.62574e-006 -3.3066e-006 -3.6222e-006 14.3729 5.07172 -0.918893 -5.40159e-006 1.10537e-006 -2.99999 8.02891 -4.95147 0.697705 -73.8402 -7.93813 5.30811 -88.8854 19.4845 -32.5188 2.17674e-005 2.64075e-006 2.12765e-006 -11.8749 4.05857 -0.23903 7.29386e-006 5.26163e-006 3.00001 -8.02887 -4.95144 -0.697678 178.351 14.5265 -1.56231 180 7.01532e-015 178.859 176.459 24.3278 -179.835 -5.79216e-006 2.69059e-007 0.583159 -22.6052 71.2379 22.7797 8.13649 25.2327 -3.48773 -179.373 11.2361 1.02989 -1.07169e-005 -4.64205e-006 -1.10595 -1.52984 -25.1282 0.450289 -1.37099e-006 -3.52311e-006 -0.726959 26.1428 75.0181 -28.0048 -8.13649 25.2327 3.48774 
52.3553 86.6022 4.62062 0.311916 -1.83958 -2.73396 1.35595 -1.37983 0.94069 2.73288 1.26273 1.73703 2.71383 2.90642 1.69224 -21.5755 7.74015 -0.351992 14.649 10.3426 -6.00943 49.4368 -6.47112 -3.52712 102.202 14.4826 20.5719 -4.62574e-006 -3.3066e-006 -3.6222e-006 14.4334 5.21389 -0.939504 -5.40159e-006 1.10537e-006 -2.99999 8.02891 -4.95147 0.697705 -73.8382 -7.93712 5.30759 -88.9036 19.4909 -32.4721 2.17674e-005 2.64075e-006 2.12765e-006 -11.9031 4.09978 -0.230492 7.29386e-006 5.26163e-006 3.00001 -8.02887 -4.95144 -0.697678 178.33 14.5249 -1.54882 180 7.01532e-015 178.859 176.46 24.3325 -179.835 -5.79216e-006 2.69059e-007 0.583159 -22.6033 71.2428 22.7847 8.13649 25.2327 -3.48773 -179.399 11.2027 1.05501 -1.07169e-005 -4.64205e-006 -1.10705 -1.52134 -25.0894 0.454761 -1.37099e-006 -3.52311e-006 -0.727567 26.1371 75.0125 -27.9968 -8.13649 25.2327 3.48774 
52.3578 86.602 4.61906 0.323975 -1.84096 -2.71861 1.35391 -1.38129 0.938411 2.72773 1.25972 1.73276 2.70874 2.90341 1.68805 -21.5731 7.73328 -0.356267 14.6534 10.3385 -6.0113 49.4351 -6.47041 -3.5265 102.262 14.5129 20.4067 -4.62574e-006 -3.3066e-006 -3.6222e-006 14.494 5.35614 -0.960166 -5.40159e-006 1.10537e-006 -2.99999 8.02891 -4.95147 0.697705 -73.8361 -7.9361 5.30706 -88.9218 19.4972 -32.4254 2.17674e-005 2.64075e-006 2.12765e-006 -11.9314 4.1411 -0.221928 7.29386e-006 5.26163e-006 3.00001 -8.02887 -4.95144 -0.697678 178.309 14.5233 -1.53516 180 7.01532e-015 178.859 176.461 24.3372 -179.836 -5.79216e-006 2.69059e-007 0.583159 -22.6013 71.2477 22.7897 8.13649 25.2327 -3.48773 -179.426 11.1688 1.08049 -1.07169e-005 -4.64205e-006 -1.10815 -1.5127 -25.05 0.459308 -1.37099e-006 -3.52311e-006 -0.728184 26.1314 75.0067 -27.9887 -8.13649 25.2327 3.48774 
52.3612 86.6056 4.62416 0.336072 -1.84234 -2.70321 1.35186 -1.38276 0.936119 2.72256 1.2567 1.72846 2.70363 2.90041 1.68383 -21.5707 7.72636 -0.360541 14.6578 10.3345 -6.01316 49.4335 -6.46973 -3.52589 102.322 14.5432 20.2415 -4.62574e-006 -3.3066e-006 -3.6222e-006 14.5547 5.49843 -0.980851 -5.40159e-006 1.10537e-006 -2.99999 8.02891 -4.95147 0.697705 -73.8339 -7.93507 5.30653 -88.94 19.5034 -32.3787 2.17674e-005 2.64075e-006 2.12765e-006 -11.9597 4.18246 -0.213358 7.29386e-006 5.26163e-006 3.00001 -8.02887 -4.95144 -0.697678 178.287 14.5217 -1.52147 180 7.01532e-015 178.858 176.462 24.3419 -179.837 -5.79216e-006 2.69059e-007 0.583159 -22.5993 71.2526 22.7947 8.13649 25.2327 -3.48773 -179.453 11.1347 1.10606 -1.07169e-005 -4.64205e-006 -1.10925 -1.50403 -25.0104 0.463871 -1.37099e-006 -3.52311e-006 -0.728804 26.1255 75.001 -27.9806 -8.13649 25.2327 3.48774 
52.4211 86.6088 4.67024 0.348095 -1.84372 -2.68791 1.34982 -1.38422 0.933854 2.71742 1.25369 1.72422 2.69856 2.8974 1.67966 -21.5684 7.71953 -0.364815 14.6623 10.3305 -6.01504 49.4318 -6.46901 -3.52526 102.382 14.5733 20.0762 -4.62574e-006 -3.3066e-006 -3.6222e-006 14.6156 5.64065 -1.00154 -5.40159e-006 1.10537e-006 -2.99999 8.02891 -4.95147 0.697705 -73.8319 -7.93405 5.30599 -88.9583 19.5097 -32.332 2.17674e-005 2.64075e-006 2.12765e-006 -11.988 4.22375 -0.2048 7.29386e-006 5.26163e-006 3.00001 -8.02887 -4.95144 -0.697678 178.266 14.5201 -1.50785 180 7.01532e-015 178.858 176.463 24.3466 -179.838 -5.79216e-006 2.69059e-007 0.583159 -22.5974 71.2574 22.7998 8.13649 25.2327 -3.48773 -179.48 11.1009 1.13143 -1.07169e-005 -4.64205e-006 -1.11035 -1.49543 -24.9712 0.468393 -1.37099e-006 -3.52311e-006 -0.729419 26.1198 74.9953 -27.9725 -8.13649 25.2327 3.48774 
52.4105 86.6178 4.65607 0.359933 -1.84511 -2.67289 1.34781 -1.38569 0.931659 2.71237 1.25067 1.72011 2.69357 2.89438 1.67563 -21.5662 7.71288 -0.369089 14.667 10.3264 -6.01699 49.4301 -6.4682 -3.52456 102.443 14.6034 19.9104 -4.62574e-006 -3.3066e-006 -3.6222e-006 14.6764 5.78276 -1.02219 -5.40159e-006 1.10537e-006 -2.99999 8.02891 -4.95147 0.697705 -73.8299 -7.93304 5.30547 -88.9765 19.5161 -32.2853 2.17674e-005 2.64075e-006 2.12765e-006 -12.0163 4.2649 -0.19627 7.29386e-006 5.26163e-006 3.00001 -8.02887 -4.95144 -0.697678 178.245 14.5185 -1.49445 180 7.01532e-015 178.858 176.464 24.3513 -179.839 -5.79216e-006 2.69059e-007 0.583159 -22.5955 71.2623 22.8048 8.13649 25.2327 -3.48773 -179.506 11.0678 1.15634 -1.07169e-005 -4.64205e-006 -1.11144 -1.48704 -24.9327 0.472816 -1.37099e-006 -3.52311e-006 -0.730021 26.1142 74.9897 -27.9646 -8.13649 25.2327 3.48774 
52.3607 86.613 4.62689 0.371475 -1.84649 -2.65831 1.34584 -1.38716 0.929576 2.70746 1.24764 1.71622 2.68871 2.89135 1.67182 -21.5642 7.70655 -0.373362 14.6721 10.3223 -6.01904 49.4283 -6.46726 -3.52375 102.504 14.6334 19.7441 -4.62574e-006 -3.3066e-006 -3.6222e-006 14.7373 5.92467 -1.0428 -5.40159e-006 1.10537e-006 -2.99999 8.02891 -4.95147 0.697705 -73.8281 -7.93206 5.30497 -88.9945 19.5226 -32.2386 2.17674e-005 2.64075e-006 2.12765e-006 -12.0446 4.30579 -0.187789 7.29386e-006 5.26163e-006 3.00001 -8.02887 -4.95144 -0.697678 178.224 14.5169 -1.48139 180 7.01532e-015 178.858 176.465 24.3559 -179.84 -5.79216e-006 2.69059e-007 0.583159 -22.5938 71.2671 22.8098 8.13649 25.2327 -3.48773 -179.532 11.0356 1.18051 -1.07169e-005 -4.64205e-006 -1.11251 -1.47894 -24.8955 0.477081 -1.37099e-006 -3.52311e-006 -0.730604 26.109 74.9843 -27.9571 -8.13649 25.2327 3.48774 
52.3837 86.6073 4.64457 0.382609 -1.84788 -2.64434 1.34394 -1.38865 0.927647 2.70273 1.24459 1.71263 2.68404 2.88831 1.6683 -21.5624 7.70064 -0.377635 14.6778 10.3182 -6.02125 49.4264 -6.46613 -3.5228 102.566 14.6634 19.577 -4.62574e-006 -3.3066e-006 -3.6222e-006 14.7981 6.0663 -1.06332 -5.40159e-006 1.10537e-006 -2.99999 8.02891 -4.95147 0.697705 -73.8265 -7.9311 5.30448 -89.0125 19.5294 -32.192 2.17674e-005 2.64075e-006 2.12765e-006 -12.0728 4.34634 -0.179373 7.29386e-006 5.26163e-006 3.00001 -8.02887 -4.95144 -0.697678 178.205 14.5154 -1.4688 180 7.01531e-015 178.858 176.466 24.3605 -179.84 -5.79216e-006 2.69059e-007 0.583159 -22.5923 71.2718 22.8147 8.13649 25.2327 -3.48773 -179.556 11.0049 1.20366 -1.07169e-005 -4.64205e-006 -1.11355 -1.47126 -24.8601 0.481132 -1.37099e-006 -3.52311e-006 -0.731159 26.1041 74.9792 -27.9499 -8.13649 25.2327 3.48774 
